<svg xmlns="http://www.w3.org/2000/svg" viewBox="0 0 24 24" fill="none" stroke="currentColor" stroke-width="1.5" stroke-linecap="round" stroke-linejoin="round">
  <!-- Structure principale du bâtiment -->
  <path d="M3 21h18"/>
  <path d="M4 21V8l4-3v16"/>
  <path d="M8 5l8-3v19"/>
  <path d="M16 2l4 3v16"/>
  
  <!-- Fenêtres du bâtiment -->
  <rect x="6" y="8" width="3" height="3"/>
  <rect x="6" y="13" width="3" height="3"/>
  <rect x="6" y="18" width="3" height="2"/>
  
  <!-- Fenêtres de la partie centrale -->
  <rect x="11" y="6" width="3" height="3"/>
  <rect x="11" y="11" width="3" height="3"/>
  <rect x="11" y="16" width="3" height="3"/>
  
  <!-- Fenêtres de droite -->
  <rect x="16" y="8" width="3" height="3"/>
  <rect x="16" y="13" width="3" height="3"/>
  <rect x="16" y="18" width="3" height="2"/>
  
  <!-- Porte d'entrée -->
  <path d="M12 21v-4h2v4"/>
</svg>