
<svg xmlns="http://www.w3.org/2000/svg" width="200.39" height="112.97" viewBox="0 0 12.79 13.59"><g id="Calque_2" data-name="Calque 2"><g id="Calque_1-2" data-name="Calque 1">
    <path style="fill: currentColor" d="M2.88.26S1.34,5.49,1.28,5.91c0,0-.17.32.31.42H7.34A.43.43,0,0,0,7.74,6L9.27.43S9.43.21,8.92,0H3.11S2.88.1,2.88.26Z"/>
    <path style="fill: currentColor" d="M9.21,3l-.85,3s-.07.33.35.39h3s.33-.06.31-.27l.79-2.87s.12-.42-.37-.46H9.57S9.23,2.79,9.21,3Z"/>
    <path style="fill: currentColor" d="M.81,7.61,0,10.34s-.18.51.36.49H3.32s.33,0,.34-.24l.72-2.72s.26-.44-.29-.57H1.15A.31.31,0,0,0,.81,7.61Z"/>
    <path style="fill: currentColor" d="M5,7.78l-1.36,5s-.45.77.31.82H9.39s.64.19.68-.65l1.4-5s.33-.64-.42-.63H5.51S5.16,7.23,5,7.78Z"/>
</g></g></svg>
  